<svg fill="#ffffff" xmlns="http://www.w3.org/2000/svg"  viewBox="0 0 24 24" width="24px" height="24px"><path d="M 0 8.03125 L 0 15.96875 L 1.90625 15.96875 L 1.90625 12.75 C 1.917969 12.617188 1.960938 12.496094 2.0625 12.40625 C 2.164063 12.316406 2.28125 12.25 2.4375 12.25 L 3.53125 12.25 C 3.664063 12.25 3.773438 12.316406 3.875 12.40625 C 3.976563 12.496094 4.019531 12.617188 4.03125 12.75 L 4.03125 15.96875 L 5.9375 15.96875 L 5.9375 12.5 C 5.9375 12.023438 5.84375 11.644531 5.65625 11.34375 C 5.457031 11.054688 5.195313 10.851563 4.875 10.71875 C 4.542969 10.574219 4.179688 10.488281 3.78125 10.5 L 2.53125 10.5 L 2.0625 10.5625 C 1.953125 10.59375 1.90625 10.625 1.90625 10.625 L 1.90625 8.03125 Z M 14.6875 8.03125 L 14.6875 15.96875 L 16.59375 15.96875 L 16.59375 8.03125 Z M 7.3125 10.5 L 7.3125 13.875 C 7.3125 14.320313 7.382813 14.6875 7.5625 15 C 7.742188 15.3125 8.019531 15.5625 8.34375 15.71875 C 8.675781 15.875 9.023438 15.96875 9.46875 15.96875 L 11.34375 15.96875 L 11.34375 15.9375 C 11.742188 15.9375 12.097656 15.855469 12.375 15.6875 C 12.652344 15.507813 12.875 15.25 13.03125 14.9375 C 13.175781 14.625 13.238281 14.273438 13.25 13.875 L 13.25 10.5 L 11.34375 10.5 L 11.34375 13.6875 C 11.332031 13.832031 11.277344 13.960938 11.1875 14.0625 C 11.085938 14.152344 10.988281 14.207031 10.84375 14.21875 L 9.71875 14.21875 C 9.574219 14.207031 9.464844 14.152344 9.375 14.0625 C 9.273438 13.960938 9.230469 13.832031 9.21875 13.6875 L 9.21875 10.5 Z M 18.0625 10.5 L 18.0625 13.875 C 18.074219 14.320313 18.15625 14.6875 18.34375 15 C 18.53125 15.3125 18.773438 15.5625 19.09375 15.71875 C 19.425781 15.875 19.785156 15.96875 20.21875 15.96875 L 22.09375 15.96875 L 22.09375 15.9375 C 22.492188 15.9375 22.835938 15.855469 23.125 15.6875 C 23.402344 15.507813 23.636719 15.25 23.78125 14.9375 C 23.933594 14.628906 24 14.273438 24 13.875 L 24 10.5 L 22.09375 10.5 L 22.09375 13.6875 C 22.09375 13.832031 22.027344 13.960938 21.9375 14.0625 C 21.847656 14.152344 21.738281 14.207031 21.59375 14.21875 L 20.46875 14.21875 C 20.3125 14.207031 20.214844 14.152344 20.125 14.0625 C 20.035156 13.960938 19.96875 13.832031 19.96875 13.6875 L 19.96875 10.5 Z"/></svg>
